<svg xmlns="http://www.w3.org/2000/svg" xmlns:xlink="http://www.w3.org/1999/xlink" viewBox="0 0 320 64">
<defs>
	<g id="sun"><circle cx="16" cy="16.003" r="7.664"/><circle fill="none" stroke="#000" stroke-width="0.25" cx="16" cy="16.003" r="8.72"/><path d="M22.344,10.055c0,0,3.708-4.07,7.251-2.307c0,0-4.169,0.182-5.29,4.812c0,0,2.999,2.34,5.175,0.396 c0,0-1.78,2.982-4.746,3.048C24.733,16.003,24.799,12.395,22.344,10.055z"/><path d="M24.746,16.253c0,0,5.499-0.2,6.722,3.563c0,0-3.049-2.85-7.14-0.408c0,0,0.43,3.779,3.34,3.974 c0,0-3.376,0.813-5.498-1.259C22.17,22.123,24.792,19.646,24.746,16.253z"/><path d="M21.957,22.381c0,0,4.056,3.719,2.282,7.256c0,0-0.169-4.169-4.797-5.303c0,0-2.348,2.992-0.411,5.173 c0,0-2.976-1.791-3.031-4.756C16,24.751,19.606,24.828,21.957,22.381z"/><path d="M15.502,24.659c0,0,0.165,5.501-3.606,6.697c0,0,2.869-3.028,0.453-7.135c0,0-3.782,0.405-3.994,3.313 c0,0-0.792-3.381,1.293-5.489C9.648,22.046,12.109,24.684,15.502,24.659z"/><path d="M9.495,21.866c0,0-3.827,3.955-7.315,2.088c0,0,4.172-0.058,5.429-4.652c0,0-2.928-2.427-5.16-0.551 c0,0,1.87-2.926,4.835-2.903C7.284,15.848,7.11,19.451,9.495,21.866z"/><path d="M7.303,15.708c0,0-5.497,0.271-6.768-3.475c0,0,3.085,2.809,7.142,0.313c0,0-0.479-3.773-3.39-3.928 c0,0,3.365-0.859,5.514,1.185C9.802,9.803,7.212,12.315,7.303,15.708z"/><path d="M9.981,9.662c0,0-4.034-3.741-2.243-7.269c0,0,0.147,4.169,4.767,5.329c0,0,2.365-2.979,0.441-5.171 c0,0,2.966,1.808,3.005,4.774C15.952,7.325,12.346,7.227,9.981,9.662z"/><path d="M16.362,7.199c0,0-0.137-5.5,3.64-6.679c0,0-2.883,3.016-0.488,7.132c0,0,3.783-0.385,4.011-3.292 c0,0,0.774,3.385-1.32,5.484C22.204,9.844,19.756,7.193,16.362,7.199z"/></g>
	<g id="moon"><path d="M19.148,5.006c1.464,1.752,2.348,4.008,2.348,6.471c0,5.578-4.521,10.099-10.1,10.099 c-2.414,0-4.628-0.849-6.365-2.262c1.498,4.462,5.704,7.681,10.673,7.681c6.223,0,11.265-5.043,11.265-11.265 C26.969,10.71,23.684,6.462,19.148,5.006z"/><polygon points="12.775,16.396 10.437,15.147 8.08,16.365 8.547,13.755 6.659,11.891 9.286,11.528 10.476,9.158 11.634,11.543 14.256,11.942 12.344,13.78"/><polygon points="18.247,12.092 17.032,11.476 15.834,12.128 16.044,10.782 15.055,9.846 16.4,9.629 16.984,8.397 17.606,9.61 18.957,9.786 17.997,10.752"/></g>
	<g id="clock"><circle cx="16" cy="16" r="2"/><rect x="8.788" y="14.75" width="7" height="2.5"/><rect x="13.61" y="10.813" transform="matrix(0.5869 -0.8097 0.8097 0.5869 -1.8722 20.4568)" width="11" height="2.5"/><circle fill="none" stroke="#000" stroke-width="3" cx="16" cy="16" r="13.5"/></g>
	<g id="quality"><polygon points="25.5,16.235 25.5,25.5 6.5,25.5 6.5,6.5 19.556,6.5 21.007,4.5 4.5,4.5 4.5,27.5 27.5,27.5 27.5,13.478"/><rect x="8.307" y="15.212" transform="matrix(0.8095 0.5872 -0.5872 0.8095 12.7718 -4.9332)" width="11.36" height="4"/><rect x="20.471" y="0.408" transform="matrix(0.8093 0.5873 -0.5873 0.8093 11.2054 -10.9513)" width="4" height="22.753"/></g>
	<g id="calendar"><rect x="8" y="1.5" width="4" height="9"/><rect x="20" y="1.5" width="4" height="9"/><rect x="4" y="6" fill="none" stroke="#000" stroke-width="3" stroke-miterlimit="10" width="24" height="22"/><rect x="7.248" y="13.549" width="7" height="4"/><rect x="17.752" y="13.549" width="7" height="4"/><rect x="7.248" y="19.704" width="7" height="4"/><rect x="17.752" y="19.704" width="7" height="4"/></g>
	<g id="genres"><polygon points="28.885,15.536 28.885,28.584 23.414,25.293 23.414,18.712"/><g fill="none" stroke="#000" stroke-width="2"><rect x="4.945" y="16.002" width="16.966" height="12.115"/><circle cx="18.285" cy="8" r="5.129"/><circle cx="7.429" cy="10.034" r="3.095"/></g></g>
	<g id="lang"><path d="M16,27.119c-2.683-3.182-4.25-7.019-4.25-11.15S13.317,8,16,4.818V3.5h-1.535c-3.006,3.544-4.778,7.845-4.778,12.489 c0,4.654,1.779,8.962,4.797,12.511H16V27.119z"/><path d="M22.255,15.989c0-4.643-1.769-8.944-4.773-12.489H16v1.172c2.76,3.21,4.38,7.101,4.38,11.297S18.76,24.056,16,27.266V28.5 h1.463C20.479,24.951,22.255,20.642,22.255,15.989z"/><g fill="none" stroke="#000"><circle stroke-width="3" cx="16" cy="16" r="12.5"/><g stroke-width="2"><line x1="3.875" y1="12" x2="27.845" y2="12"/><line x1="3.688" y1="20" x2="27.845" y2="20"/></g></g></g>
	<g id="play"><circle fill="none" stroke="#000" stroke-width="0.5" cx="16" cy="16" r="13.5"/><polygon points="11.22,22.517 11.22,9.483 24.253,16"/></g>
	<g id="youtube"><path fill="none" stroke="#000" stroke-width="2.5" d="M28.188,20.916c0,1.65-1.35,3-3,3H6.813 c-1.65,0-3-1.35-3-3v-9.832c0-1.65,1.35-3,3-3h18.375c1.65,0,3,1.35,3,3V20.916z"/><polygon points="12.458,12 21.709,16 12.458,20"/></g>
	<g id="download"><rect x="2.708" y="22.127" width="3" height="7.52"/><rect x="26.291" y="22.127" width="3" height="7.52"/><rect x="2.708" y="26.647" width="26.583" height="3"/><rect x="14" y="2.459" width="4" height="10.375"/><polygon points="8,12.375 24,12.375 16,24.563"/></g>
	<g id="eye"><circle cx="16" cy="14.75" r="5"/><path d="M16.009,9.125c5.853,0,10.896,3.007,13.291,7.357c0.474-0.549,0.908-1.124,1.294-1.729C27.704,10.222,22.257,7.16,16,7.16 c-6.256,0-11.703,3.063-14.593,7.594c0.389,0.61,0.827,1.19,1.305,1.743C5.103,12.139,10.151,9.125,16.009,9.125z"/><path d="M16,22.349c6.257,0,11.705-3.063,14.593-7.595c-0.386-0.605-0.821-1.182-1.295-1.73c-2.395,4.35-7.437,7.357-13.289,7.357 c-5.857,0-10.904-3.014-13.296-7.371c-0.478,0.553-0.917,1.133-1.306,1.744C4.296,19.285,9.744,22.349,16,22.349z"/></g>
	<g id="arrow"><polyline fill="none" stroke="#000" stroke-width="3" points="3,10 16,22 29,10"/></g>
	<g id="next" fill="none" stroke="#000" stroke-width="3"><polyline points="5,29 17,16 5,3"/><polyline points="14.118,29 26.118,16 14.118,3"/></g>
	<g id="menu"><rect x="2" y="5" width="4" height="4"/><rect x="10" y="5" width="20" height="4"/><rect x="2" y="14" width="4" height="4"/><rect x="10" y="14" width="20" height="4"/><rect x="2" y="23" width="4" height="4"/><rect x="10" y="23" width="20" height="4"/></g>
	<g id="x" fill="none" stroke="#000" stroke-width="5"><line x1="3" y1="3" x2="29" y2="29"/><line x1="3" y1="29" x2="29" y2="3"/></g>
</defs>
<use xlink:href="#sun" x="0" y="0"/>
<use xlink:href="#moon" x="32" y="0"/>
<use xlink:href="#clock" x="64" y="0"/>
<use xlink:href="#quality" x="96" y="0"/>
<use xlink:href="#calendar" x="128" y="0"/>
<use xlink:href="#genres" x="160" y="0"/>
<use xlink:href="#lang" x="192" y="0"/>
<use xlink:href="#play" x="224" y="0"/>
<use xlink:href="#youtube" x="256" y="0"/>
<use xlink:href="#download" x="288" y="0"/>
<use xlink:href="#eye" x="0" y="32"/>
<use xlink:href="#arrow" x="32" y="32"/>
<use xlink:href="#next" x="64" y="32"/>
<use xlink:href="#menu" x="96" y="32"/>
<use xlink:href="#x" x="128" y="32"/>
</svg>