<svg xmlns="http://www.w3.org/2000/svg" xmlns:xlink="http://www.w3.org/1999/xlink" viewBox="0 0 152 47"><g>

<path fill="hsl(219,79%,66%)" d="M41.19,23.472c0.002,9.778-7.963,17.73-17.749,17.718 c-9.728-0.013-17.669-7.968-17.669-17.701c0-9.741,7.956-17.727,17.652-17.717C33.244,5.78,41.188,13.695,41.19,23.472z M34.355,23.479c-5.615-3.118-11.121-6.176-16.695-9.271c0,6.232,0,12.32,0,18.545C23.25,29.648,28.754,26.591,34.355,23.479z M17.414,14.437c-0.031-0.013-0.063-0.025-0.094-0.038c0,6.041,0,12.082,0,18.123c0.032,0,0.063,0,0.094,0 C17.414,26.494,17.414,20.465,17.414,14.437z"/>

<path fill="#D19032" d="M26.068,0.191c1.07,0.245,2.146,0.467,3.21,0.739 c9.624,2.454,16.658,10.819,17.435,20.723c0.007,0.091-0.018,0.185-0.035,0.338c-0.881,0-1.757,0-2.601,0 C42.382,10.949,36.04,4.599,24.918,2.873c0-0.846,0-1.764,0-2.681C25.302,0.191,25.685,0.191,26.068,0.191z"/>
<path fill="#D19032" d="M0.192,20.701c0.162-0.664,0.337-1.325,0.485-1.992 C2.79,9.162,10.005,2.242,19.652,0.507c0.357-0.064,0.7-0.209,1.05-0.316c0.447,0,0.895,0,1.342,0c0,0.917,0,1.833,0,2.741 C11.294,3.879,3.761,12.28,2.995,22.042c-0.922,0-1.863,0-2.803,0C0.192,21.595,0.192,21.148,0.192,20.701z"/>
<path fill="#D19032" d="M0.192,24.917c0.917,0,1.835,0,2.744,0 c0.92,10.505,9.04,18.212,19.046,19.058c0,0.866,0,1.742,0,2.862c-1.633-0.316-3.284-0.475-4.83-0.964 C7.692,42.874,2.12,36.438,0.396,26.664c-0.036-0.205-0.135-0.398-0.204-0.597C0.192,25.685,0.192,25.301,0.192,24.917z"/>
<path fill="#D19032" d="M43.967,24.956c0.925,0,1.801,0,2.678,0 c-0.333,11.151-10.027,21.26-21.68,21.701c0-0.877,0-1.752,0-2.69c5.057-0.452,9.432-2.387,13.021-5.974 C41.574,34.405,43.513,30.034,43.967,24.956z"/>

<path fill="#D19032" d="M69.762,32.538c0.364-0.822,0.593-1.537,0.976-2.156 c0.6-0.97,0.851-2.021,0.936-3.122c0.154-2.023,0.265-4.049,0.405-6.073c0.079-1.136,0.181-2.271,0.288-3.601 c-0.741,0.139-1.36,0.291-1.988,0.357c-0.279,0.03-0.576-0.111-0.864-0.175c0.103-0.259,0.137-0.591,0.32-0.765 c1.146-1.083,2.257-2.223,3.52-3.154c0.635-0.469,1.554-0.706,2.363-0.756c2.333-0.147,4.688-0.234,6.918,0.709 c3.29,1.392,5.71,4.188,5.208,8.36c-0.568,4.722-3.265,7.471-7.471,9.08C77.058,32.511,73.599,32.658,69.762,32.538z M76.725,28.561c1.835-0.2,3.578-0.586,4.474-2.346c1.3-2.557,1.275-5.186-0.161-7.699c-0.561-0.98-1.556-1.456-2.7-1.43 c-0.24,0.005-0.656,0.318-0.682,0.528c-0.183,1.464-0.288,2.938-0.408,4.409C77.072,24.15,76.907,26.279,76.725,28.561z"/>
<path fill="#D19032" d="M53.111,17.606c-0.717,0.124-1.343,0.264-1.977,0.327 c-0.275,0.027-0.566-0.103-0.851-0.161c0.082-0.245,0.091-0.563,0.255-0.723c1.132-1.11,2.241-2.256,3.476-3.242 c0.546-0.436,1.364-0.722,2.066-0.738c2.263-0.051,4.546-0.253,6.759,0.53c3.011,1.066,5.779,3.506,5.803,7.251 c0.017,2.727-0.708,5.169-2.511,7.175c-1.481,1.646-3.41,2.711-5.526,3.418c-3.029,1.012-6.153,1.203-9.311,1.142 c-0.687-0.014-0.821-0.275-0.524-0.902c0.505-1.067,1.052-2.134,1.377-3.26c0.273-0.948,0.293-1.979,0.362-2.977 c0.152-2.205,0.258-4.413,0.397-6.62C52.932,18.465,53.026,18.107,53.111,17.606z M57.407,28.483 c1.481,0.045,2.746-0.351,3.533-1.16c1.928-1.984,2.242-4.332,1.578-6.928c-0.397-1.556-1.147-2.761-2.749-3.265 c-0.89-0.28-1.423,0.022-1.491,0.867c-0.209,2.603-0.383,5.208-0.587,7.812C57.621,26.701,57.503,27.591,57.407,28.483z"/>


<path fill="hsl(219,79%,66%)" d="M128.039,18.643c1.566-0.368,3.082-0.978,4.614-1.024 c2.254-0.068,3.826,1.483,4.342,3.887c0.727,3.382-0.056,6.501-2.307,9.04c-1.805,2.035-4.304,3.026-7.729,0.791 c-0.153,1.631-0.338,3.243-0.438,4.86c-0.035,0.563-0.174,0.867-0.753,0.996c-1.104,0.245-2.193,0.549-3.287,0.834 c-1.147,0.299-1.29,0.128-1.173-1.032c0.187-1.858,0.27-3.728,0.427-5.59c0.222-2.618,0.482-5.232,0.704-7.851 c0.11-1.297,0.167-2.599,0.254-3.898c0.089-1.322,0.266-1.441,1.558-1.648c1.299-0.208,2.578-0.537,3.952-0.832 C128.139,17.754,128.077,18.302,128.039,18.643z M132.438,24.438c-0.061-0.018-0.121-0.036-0.183-0.055 c0-0.19,0.042-0.393-0.007-0.571c-0.231-0.854-0.174-1.788-1.039-2.432c-0.996-0.741-3.1,0.222-3.346,1.236 c-0.402,1.661-0.446,3.455-0.338,5.172c0.05,0.781,1.059,1.29,1.906,1.306c0.849,0.016,1.628-0.433,1.947-1.273 C131.8,26.72,132.092,25.569,132.438,24.438z"/>
<path fill="hsl(219,79%,66%)" d="M103.5,27.134c-0.062,1.343-0.105,2.687-0.209,4.026 c-0.013,0.166-0.321,0.359-0.532,0.45c-5.604,2.416-11.957,0.491-13.36-6.395c-1.128-5.532,2.414-11.031,8.08-11.997 c2.281-0.388,4.461-0.226,6.438,1.095c0.229,0.153,0.489,0.44,0.514,0.688c0.117,1.163,0.183,2.333,0.217,3.502 c0.024,0.856-0.266,1.013-1.042,0.606c-0.644-0.337-1.254-0.743-1.909-1.054c-2.853-1.352-6.068,0.411-6.42,3.555 c-0.181,1.614-0.189,3.233,0.661,4.729c0.614,1.081,1.468,1.647,2.749,1.682c1.578,0.044,3.076-0.155,4.455-1.005 C103.261,27.057,103.38,27.095,103.5,27.134z"/>
<path fill="hsl(219,79%,66%)" d="M104.867,25.425c0.026-3.389,2.317-6.39,5.514-7.204 c0.314-0.081,0.795,0.021,0.669-0.604c-0.015-0.075,0.366-0.34,0.553-0.329c2.613,0.151,5.154,0.5,7.081,2.576 c1.426,1.536,1.798,3.405,1.641,5.373c-0.179,2.227-1.06,4.186-2.896,5.563c-2.535,1.901-5.351,2.311-8.301,1.185 c-2.534-0.968-3.795-3.013-4.252-5.606C104.82,26.069,104.867,25.743,104.867,25.425z M109.897,25.243 c0.042,0.008,0.083,0.016,0.125,0.023c0,0.412-0.049,0.831,0.008,1.235c0.211,1.478,1.015,2.336,2.293,2.506 c1.162,0.154,2.111-0.437,2.687-1.785c0.535-1.255,0.59-2.585,0.241-3.894c-0.381-1.427-1.172-2.042-2.46-2.061 c-1.402-0.02-2.043,0.442-2.51,1.948C110.078,23.869,110.021,24.566,109.897,25.243z"/>
<path fill="hsl(219,79%,66%)" d="M152.191,19.359c-1.027,2.261-2.064,4.517-3.079,6.783 c-1.651,3.69-3.282,7.39-4.941,11.076c-0.1,0.221-0.412,0.543-0.559,0.512c-1.241-0.271-2.466-0.611-3.809-0.961 c0.593-1.397,1.156-2.661,1.658-3.948c0.141-0.359,0.213-0.819,0.122-1.184c-1.01-4.041-2.063-8.07-3.08-12.108 c-0.064-0.255,0.013-0.779,0.13-0.813c1.458-0.422,2.936-0.777,4.431-1.154c0.526,2.85,1.021,5.531,1.556,8.425 c0.584-1.63,1.108-3.093,1.634-4.556c0.396-1.099,0.764-2.209,1.213-3.286c0.096-0.227,0.535-0.508,0.743-0.458 c1.339,0.318,2.657,0.722,3.981,1.098C152.191,18.976,152.191,19.167,152.191,19.359z"/>

</g></svg>